HIERARCHY
ROOT hip
{
  OFFSET 0 0 0
  CHANNELS 6 Xposition Yposition Zposition Zrotation Yrotation Xrotation
  JOINT abdomen
  {
    OFFSET 0 20.6881 -0.73152
    CHANNELS 3 Zrotation Xrotation Yrotation
    JOINT chest
    {
      OFFSET 0 11.7043 -0.48768
      CHANNELS 3 Zrotation Xrotation Yrotation
      JOINT neck
      {
        OFFSET 0 22.1894 -2.19456
        CHANNELS 3 Zrotation Xrotation Yrotation
        JOINT head
        {
          OFFSET -0.24384 7.07133 1.2192
          CHANNELS 3 Zrotation Xrotation Yrotation
          JOINT leftEye
          {
            OFFSET 4.14528 8.04674 8.04672
            CHANNELS 3 Zrotation Xrotation Yrotation
            End Site
            {
              OFFSET 1 0 0
            }
          }
          JOINT rightEye
          {
            OFFSET -3.6576 8.04674 8.04672
            CHANNELS 3 Zrotation Xrotation Yrotation
            End Site
            {
              OFFSET 1 0 0
            }
          }
        }
      }
      JOINT rCollar
      {
        OFFSET -2.68224 19.2634 -4.8768
        CHANNELS 3 Zrotation Xrotation Yrotation
        JOINT rShldr
        {
          OFFSET -8.77824 -1.95073 1.46304
          CHANNELS 3 Zrotation Xrotation Yrotation
          JOINT rForeArm
          {
            OFFSET -28.1742 -1.7115 0.48768
            CHANNELS 3 Zrotation Xrotation Yrotation
            JOINT rHand
            {
              OFFSET -22.5879 0.773209 7.07136
              CHANNELS 3 Zrotation Xrotation Yrotation
              JOINT rThumb1
              {
                OFFSET -1.2192 -0.487915 3.41376
                CHANNELS 3 Zrotation Xrotation Yrotation
                JOINT rThumb2
                {
                  OFFSET -3.37035 -0.52449 3.41376
                  CHANNELS 3 Zrotation Xrotation Yrotation
                  End Site
                  {
                    OFFSET -1.78271 -1.18214 1.43049
                  }
                }
              }
              JOINT rIndex1
              {
                OFFSET -7.75947 0.938293 5.60832
                CHANNELS 3 Zrotation Xrotation Yrotation
                JOINT rIndex2
                {
                  OFFSET -2.54057 -0.884171 1.56538
                  CHANNELS 3 Zrotation Xrotation Yrotation
                  End Site
                  {
                    OFFSET -1.62519 -0.234802 1.16502
                  }
                }
              }
              JOINT rMid1
              {
                OFFSET -8.24714 1.18213 3.41376
                CHANNELS 3 Zrotation Xrotation Yrotation
                JOINT rMid2
                {
                  OFFSET -3.10165 -0.590103 1.0647
                  CHANNELS 3 Zrotation Xrotation Yrotation
                  End Site
                  {
                    OFFSET -2.48547 -0.328903 0.83742
                  }
                }
              }
              JOINT rRing1
              {
                OFFSET -8.82822 0.546677 1.51678
                CHANNELS 3 Zrotation Xrotation Yrotation
                JOINT rRing2
                {
                  OFFSET -2.60934 -0.819778 -0.0198488
                  CHANNELS 3 Zrotation Xrotation Yrotation
                  End Site
                  {
                    OFFSET -2.33842 -0.294052 0.168128
                  }
                }
              }
              JOINT rPinky1
              {
                OFFSET -8.27202 -0.0477905 -0.4584
                CHANNELS 3 Zrotation Xrotation Yrotation
                JOINT rPinky2
                {
                  OFFSET -1.82734 -0.647385 -0.700984
                  CHANNELS 3 Zrotation Xrotation Yrotation
                  End Site
                  {
                    OFFSET -1.69225 -0.51767 -0.607171
                  }
                }
              }
            }
          }
        }
      }
      JOINT lCollar
      {
        OFFSET 2.68224 19.2634 -4.8768
        CHANNELS 3 Zrotation Xrotation Yrotation
        JOINT lShldr
        {
          OFFSET 8.77824 -1.95073 1.46304
          CHANNELS 3 Zrotation Xrotation Yrotation
          JOINT lForeArm
          {
            OFFSET 28.1742 -1.7115 0.48768
            CHANNELS 3 Zrotation Xrotation Yrotation
            JOINT lHand
            {
              OFFSET 22.5879 0.773209 7.07136
              CHANNELS 3 Zrotation Xrotation Yrotation
              JOINT lThumb1
              {
                OFFSET 1.2192 -0.487915 3.41376
                CHANNELS 3 Zrotation Xrotation Yrotation
                JOINT lThumb2
                {
                  OFFSET 3.37035 -0.52449 3.41376
                  CHANNELS 3 Zrotation Xrotation Yrotation
                  End Site
                  {
                    OFFSET 1.78271 -1.18214 1.43049
                  }
                }
              }
              JOINT lIndex1
              {
                OFFSET 7.75947 0.938293 5.60832
                CHANNELS 3 Zrotation Xrotation Yrotation
                JOINT lIndex2
                {
                  OFFSET 2.54057 -0.884171 1.56538
                  CHANNELS 3 Zrotation Xrotation Yrotation
                  End Site
                  {
                    OFFSET 1.62519 -0.234802 1.16502
                  }
                }
              }
              JOINT lMid1
              {
                OFFSET 8.24714 1.18213 3.41376
                CHANNELS 3 Zrotation Xrotation Yrotation
                JOINT lMid2
                {
                  OFFSET 3.10165 -0.590103 1.0647
                  CHANNELS 3 Zrotation Xrotation Yrotation
                  End Site
                  {
                    OFFSET 2.48547 -0.328903 0.83742
                  }
                }
              }
              JOINT lRing1
              {
                OFFSET 8.82822 0.546677 1.51678
                CHANNELS 3 Zrotation Xrotation Yrotation
                JOINT lRing2
                {
                  OFFSET 2.60934 -0.819778 -0.0198488
                  CHANNELS 3 Zrotation Xrotation Yrotation
                  End Site
                  {
                    OFFSET 2.33842 -0.294052 0.168128
                  }
                }
              }
              JOINT lPinky1
              {
                OFFSET 8.27202 -0.0477905 -0.4584
                CHANNELS 3 Zrotation Xrotation Yrotation
                JOINT lPinky2
                {
                  OFFSET 1.82734 -0.647385 -0.700984
                  CHANNELS 3 Zrotation Xrotation Yrotation
                  End Site
                  {
                    OFFSET 1.69225 -0.51767 -0.607171
                  }
                }
              }
            }
          }
        }
      }
    }
  }
  JOINT rButtock
  {
    OFFSET -8.77824 4.35084 1.2192
    CHANNELS 3 Zrotation Xrotation Yrotation
    JOINT rThigh
    {
      OFFSET 0 -1.70687 -2.19456
      CHANNELS 3 Zrotation Xrotation Yrotation
      JOINT rShin
      {
        OFFSET 0 -36.8199 0.73152
        CHANNELS 3 Zrotation Xrotation Yrotation
        JOINT rFoot
        {
          OFFSET 0.73152 -45.1104 -5.12064
          CHANNELS 3 Zrotation Xrotation Yrotation
          End Site
          {
            OFFSET -1.1221 -3.69964 12.103
          }
        }
      }
    }
  }
  JOINT lButtock
  {
    OFFSET 8.77824 4.35084 1.2192
    CHANNELS 3 Zrotation Xrotation Yrotation
    JOINT lThigh
    {
      OFFSET 0 -1.70687 -2.19456
      CHANNELS 3 Zrotation Xrotation Yrotation
      JOINT lShin
      {
        OFFSET 0 -36.8199 0.73152
        CHANNELS 3 Zrotation Xrotation Yrotation
        JOINT lFoot
        {
          OFFSET -0.73152 -45.1104 -5.12064
          CHANNELS 3 Zrotation Xrotation Yrotation
          End Site
          {
            OFFSET 1.1221 -3.69964 12.103
          }
        }
      }
    }
  }
}
MOTION
Frames:	8
Frame Time:	0.00833333
222.057 84.7658 35.9393 0.0 0.0 0.0 -0.385197 -0.00168813 -0.0109958 -0.106234 -0.00256712 -0.0184049 9.09684e-15 -1.59028e-15 7.45442e-17 2.72863e-14 3.18055e-15 2.14315e-16 -0.0 0.0 0.0 -0.0 0.0 0.0 4.52121e-15 6.7944e-18 1.98785e-16 9.85955e-14 1.30452e-16 2.18663e-15 1.65056e-12 -4.87818e-13 -3.18055e-15 1.88783e-11 5.24344e-13 1.87653e-13 4.45314e-11 7.56218e-14 4.13472e-13 7.68987e-11 1.24042e-13 7.09264e-13 4.45365e-11 7.87187e-14 3.97569e-13 7.73091 5.47488 0.417314 4.45314e-11 7.55382e-14 4.13472e-13 2.90554 0.965183 0.102902 4.45358e-11 7.59357e-14 4.09496e-13 10.2786 0.731801 0.0259123 4.45252e-11 7.71284e-14 4.19833e-13 2.22167 -0.733487 -0.20892 4.52379e-15 6.60027e-18 -9.93923e-17 9.30916e-14 2.29845e-16 3.97569e-16 1.65006e-12 4.98353e-13 0.0 1.88731e-11 -4.71567e-13 2.06736e-13 4.45235e-11 5.48104e-14 4.13472e-13 7.68959e-11 8.90555e-14 7.14035e-13 4.45182e-11 5.60573e-14 4.32555e-13 -7.73091 5.47488 -0.417314 4.45241e-11 5.43676e-14 4.07111e-13 -2.90554 0.965183 -0.102902 4.45204e-11 5.48646e-14 4.15062e-13 -10.2786 0.731801 -0.0259123 4.45258e-11 5.4467e-14 4.0393e-13 -2.22167 -0.733487 0.20892 -2.03217e-16 0.0 -3.88251e-19 0.221649 -2.58356 -0.0280809 -0.00748957 -0.872631 -0.06514 -0.51311 3.45577 0.129347 2.03217e-16 0.0 3.88251e-19 -0.807776 -4.07084 0.0653913 0.00325576 1.82139 0.024432 0.517712 2.24911 -0.10518
218.141 83.4998 29.099 -93.1445 -85.3323 101.226 -0.500911 0.00214463 -0.0205866 -0.139399 0.00391925 -0.0241378 6.42246e-14 4.375 1.70755e-14 -2.84405e-11 -8.75 -8.70645e-11 -0.0 0.0 0.0 -0.0 0.0 0.0 4.36034e-14 8.79315e-14 1.19329e-14 -2.1875 1.29107e-09 7.13231e-11 -5.58822e-12 2.22189e-11 4.84785e-14 -2.04669e-11 1.23322e-10 -4.449e-12 -5.78775e-11 3.166e-10 -9.60403e-12 -1.00454e-10 5.47061e-10 -1.66262e-11 -5.78725e-11 3.16599e-10 -9.62292e-12 7.73091 5.47488 0.417314 -5.78781e-11 3.16596e-10 -9.606e-12 2.90554 0.965183 0.102902 -5.78709e-11 3.16596e-10 -9.61059e-12 10.2786 0.731801 0.0259123 -5.78824e-11 3.16601e-10 -9.60277e-12 2.22167 -0.733487 -0.20892 4.35794e-14 8.79285e-14 1.16631e-14 2.1875 1.29107e-09 -7.13212e-11 5.36143e-12 -1.97357e-10 2.98189e-12 1.93989e-11 -1.05889e-09 3.54099e-11 5.3695e-11 -2.72741e-09 8.33377e-11 9.28445e-11 -4.71105e-09 1.43915e-10 5.369e-11 -2.72741e-09 8.33545e-11 -7.73091 5.47488 -0.417314 5.36956e-11 -2.72741e-09 8.33323e-11 -2.90554 0.965183 -0.102902 5.3691e-11 -2.72741e-09 8.33399e-11 -10.2786 0.731801 -0.0259123 5.36978e-11 -2.72741e-09 8.33282e-11 -2.22167 -0.733487 0.20892 -2.03217e-16 0.0 -3.88251e-19 1.32249 -5.34681 1.06592 -0.0114505 3.15843 -0.00703667 -0.483035 3.72166 0.130238 2.03217e-16 0.0 3.88251e-19 1.82785 -6.44505 -1.45082 0.000592201 5.12956 -0.0265963 0.481405 2.35884 -0.102488
218.145 83.5002 29.0671 -93.2549 -85.3165 101.351 -0.623228 0.00619965 -0.0307209 -0.174457 0.0107816 -0.0301982 1.18373e-13 9.0 3.62331e-14 -8.88064e-11 -18.0 -1.8613e-10 -0.0 0.0 0.0 -0.0 0.0 0.0 8.51007e-14 2.02684e-13 2.50127e-14 -4.5 2.65591e-09 1.46719e-10 -1.57365e-11 4.72939e-11 -3.0593e-13 -7.70095e-11 2.58363e-10 -1.52205e-11 -2.04127e-10 6.64925e-10 -3.38463e-11 -3.53601e-10 1.14895e-09 -5.85406e-11 -2.04123e-10 6.64919e-10 -3.38685e-11 7.73091 5.47488 0.417314 -2.04129e-10 6.64916e-10 -3.38505e-11 2.90554 0.965183 0.102902 -2.04118e-10 6.64917e-10 -3.38558e-11 10.2786 0.731801 0.0259123 -2.04131e-10 6.64926e-10 -3.38508e-11 2.22167 -0.733487 -0.20892 8.50491e-14 2.02678e-13 2.47735e-14 4.5 2.65591e-09 -1.46718e-10 9.31331e-12 -4.08394e-10 6.62013e-12 6.37084e-12 -2.18377e-09 7.89779e-11 3.39387e-11 -5.62788e-09 1.85863e-10 5.88324e-11 -9.72106e-09 3.20975e-10 3.39338e-11 -5.62788e-09 1.85878e-10 -7.73091 5.47488 -0.417314 3.39392e-11 -5.62788e-09 1.85859e-10 -2.90554 0.965183 -0.102902 3.39337e-11 -5.62787e-09 1.85866e-10 -10.2786 0.731801 -0.0259123 3.3942e-11 -5.62787e-09 1.85854e-10 -2.22167 -0.733487 0.20892 -2.03217e-16 0.0 -3.88251e-19 2.60102 -8.26328 2.23437 -0.0245832 7.4205 0.0548604 -0.451247 4.00272 0.131182 2.03217e-16 0.0 3.88251e-19 4.475 -8.94733 -3.07356 0.00424554 8.62772 -0.0812346 0.443 2.47496 -0.0996432
218.122 83.5006 29.0399 -93.6801 -85.3169 101.787 -0.732335 0.00981016 -0.0397682 -0.205725 0.016892 -0.0356036 1.66513e-13 13.125 5.22943e-14 -1.7295e-10 -26.25 -2.87838e-10 -0.0 0.0 0.0 -0.0 0.0 0.0 1.21768e-13 2.63781e-13 3.54011e-14 -6.5625 3.8732e-09 2.13965e-10 -2.00658e-11 6.76324e-11 1.51797e-13 -9.91575e-11 3.68916e-10 -1.37223e-11 -2.62695e-10 9.49649e-10 -2.9639e-11 -4.55159e-10 1.64094e-09 -5.1297e-11 -2.62691e-10 9.49639e-10 -2.96639e-11 7.73091 5.47488 0.417314 -2.62697e-10 9.49636e-10 -2.96449e-11 2.90554 0.965183 0.102902 -2.62684e-10 9.49637e-10 -2.96508e-11 10.2786 0.731801 0.0259123 -2.62698e-10 9.49649e-10 -2.9648e-11 2.22167 -0.733487 -0.20892 1.21691e-13 2.63772e-13 3.5188e-14 6.5625 3.8732e-09 -2.13964e-10 1.27842e-11 -5.93067e-10 8.94568e-12 2.04504e-11 -3.17572e-09 1.05816e-10 7.20382e-11 -8.18235e-09 2.49186e-10 1.24742e-10 -1.41333e-08 4.30318e-10 7.20335e-11 -8.18234e-09 2.49198e-10 -7.73091 5.47488 -0.417314 7.20387e-11 -8.18235e-09 2.49183e-10 -2.90554 0.965183 -0.102902 7.20321e-11 -8.18234e-09 2.4919e-10 -10.2786 0.731801 -0.0259123 7.20419e-11 -8.18233e-09 2.49177e-10 -2.22167 -0.733487 0.20892 -2.03217e-16 0.0 -3.88251e-19 3.8458 -10.8585 3.29907 -0.04418 11.2205 0.111315 -0.42291 4.25344 0.132029 2.03217e-16 0.0 3.88251e-19 6.71585 -11.1653 -4.54154 0.0132568 11.7459 -0.131053 0.408759 2.57829 -0.097104
218.104 83.4995 29.0171 -94.3094 -85.3335 102.446 -0.80842 0.0123094 -0.0460978 -0.227518 0.0211228 -0.0393711 2.05968e-13 16.0 5.93177e-14 -2.52294e-10 -32.0 -3.7109e-10 -0.0 0.0 0.0 -0.0 0.0 0.0 1.46359e-13 1.90738e-13 3.90612e-14 -8.0 4.72161e-09 2.60833e-10 -9.84744e-12 7.61298e-11 2.63986e-12 -3.5319e-11 4.18247e-10 1.84504e-11 -1.02058e-10 1.07537e-09 4.56918e-11 -1.7774e-10 1.85813e-09 7.8842e-11 -1.02053e-10 1.07536e-09 4.56664e-11 7.73091 5.47488 0.417314 -1.0206e-10 1.07536e-09 4.56855e-11 2.90554 0.965183 0.102902 -1.02046e-10 1.07536e-09 4.56799e-11 10.2786 0.731801 0.0259123 -1.02059e-10 1.07537e-09 4.56823e-11 2.22167 -0.733487 -0.20892 1.46261e-13 1.90729e-13 3.88624e-14 8.0 4.72161e-09 -2.60833e-10 1.50525e-11 -7.1183e-10 7.98955e-12 1.02299e-10 -3.83533e-09 9.08303e-11 2.54777e-10 -9.8718e-09 2.14503e-10 4.40454e-10 -1.70512e-08 3.70372e-10 2.54773e-10 -9.8718e-09 2.14513e-10 -7.73091 5.47488 -0.417314 2.54778e-10 -9.87181e-09 2.145e-10 -2.90554 0.965183 -0.102902 2.5477e-10 -9.87179e-09 2.14506e-10 -10.2786 0.731801 -0.0259123 2.54781e-10 -9.87179e-09 2.14493e-10 -2.22167 -0.733487 0.20892 -2.03217e-16 0.0 -3.88251e-19 4.77851 -12.6638 4.06501 -0.0623231 13.8655 0.151794 -0.403179 4.42829 0.132626 2.03217e-16 0.0 3.88251e-19 8.21404 -12.6975 -5.57344 0.0228461 13.914 -0.166609 0.384951 2.64965 -0.0953299
218.082 83.4992 28.9854 -94.625 -85.3115 102.788 -0.838168 0.0132497 -0.0485974 -0.236014 0.0227177 -0.0408402 2.53239e-13 17.125 5.29749e-14 -2.889e-10 -34.25 -4.07493e-10 -0.0 0.0 0.0 -0.0 0.0 0.0 1.59784e-13 -1.48192e-13 3.26422e-14 -8.5625 5.0536e-09 2.79173e-10 3.02989e-11 7.13657e-11 1.00779e-11 2.0157e-10 4.0058e-10 1.22014e-10 5.00717e-10 1.02626e-09 2.86988e-10 8.63917e-10 1.77312e-09 4.9573e-10 5.00721e-10 1.02624e-09 2.86965e-10 7.73091 5.47488 0.417314 5.00715e-10 1.02625e-09 2.86983e-10 2.90554 0.965183 0.102902 5.00726e-10 1.02625e-09 2.86979e-10 10.2786 0.731801 0.0259123 5.00715e-10 1.02626e-09 2.86984e-10 2.22167 -0.733487 -0.20892 1.59672e-13 -1.48198e-13 3.24403e-14 8.5625 5.0536e-09 -2.79173e-10 1.54483e-11 -7.53276e-10 8.36734e-13 3.34503e-10 -4.12526e-09 -4.80484e-12 7.6001e-10 -1.0588e-08 -8.89826e-12 1.31314e-09 -1.82869e-08 -1.55676e-11 7.60006e-10 -1.0588e-08 -8.89229e-12 -7.73091 5.47488 -0.417314 7.6001e-10 -1.0588e-08 -8.90202e-12 -2.90554 0.965183 -0.102902 7.60001e-10 -1.0588e-08 -8.89645e-12 -10.2786 0.731801 -0.0259123 7.60012e-10 -1.0588e-08 -8.90803e-12 -2.22167 -0.733487 0.20892 -2.03217e-16 0.0 -3.88251e-19 5.17078 -13.3713 4.39115 -0.0703092 14.893 0.167886 -0.395502 4.49692 0.132871 2.03217e-16 0.0 3.88251e-19 8.79497 -13.2831 -5.96366 0.0272709 14.7529 -0.180689 0.37579 2.67639 -0.094634
218.06 83.5018 28.9631 -95.3169 -85.3304 103.511 -0.834823 0.0130766 -0.0483625 -0.235015 0.02243 -0.0406676 3.05595e-13 17.0 3.69193e-14 -2.84662e-10 -34.0 -4.03324e-10 -0.0 0.0 0.0 -0.0 0.0 0.0 1.6496e-13 -6.73325e-13 1.90554e-14 -8.5 5.01671e-09 2.77135e-10 9.1367e-11 5.69713e-11 2.09513e-11 5.59559e-10 3.34167e-10 2.75217e-10 1.41286e-09 8.49989e-10 6.43668e-10 2.44033e-09 1.46831e-09 1.11198e-09 1.41287e-09 8.49977e-10 6.43651e-10 7.73091 5.47488 0.417314 1.41286e-09 8.49981e-10 6.43666e-10 2.90554 0.965183 0.102902 1.41287e-09 8.49982e-10 6.43665e-10 10.2786 0.731801 0.0259123 1.41286e-09 8.4999e-10 6.43675e-10 2.22167 -0.733487 -0.20892 1.64837e-13 -6.73325e-13 1.8838e-14 8.5 5.01671e-09 -2.77135e-10 1.45155e-11 -7.38785e-10 -1.0666e-11 6.71461e-10 -4.14657e-09 -1.56994e-10 1.48988e-09 -1.05977e-08 -3.64645e-10 2.57379e-09 -1.83015e-08 -6.30123e-10 1.48988e-09 -1.05977e-08 -3.64643e-10 -7.73091 5.47488 -0.417314 1.48988e-09 -1.05977e-08 -3.6465e-10 -2.90554 0.965183 -0.102902 1.48987e-09 -1.05977e-08 -3.64646e-10 -10.2786 0.731801 -0.0259123 1.48988e-09 -1.05977e-08 -3.64655e-10 -2.22167 -0.733487 0.20892 -2.03217e-16 0.0 -3.88251e-19 5.15181 -13.2974 4.39565 -0.0690865 14.7653 0.165957 -0.396433 4.48969 0.132863 2.03217e-16 0.0 3.88251e-19 8.7494 -13.1972 -5.88755 0.0266054 14.6423 -0.178985 0.377092 2.67126 -0.094708
218.041 83.5009 28.9347 -95.8419 -85.33 104.067 -0.818412 0.0124632 -0.0470743 -0.230271 0.0213963 -0.0398476 3.32142e-13 16.375 1.68014e-14 -2.64119e-10 -32.75 -3.82952e-10 -0.0 0.0 0.0 -0.0 0.0 0.0 1.57654e-13 -1.14799e-12 3.65616e-15 -8.1875 4.83227e-09 2.66946e-10 1.45506e-10 3.3419e-11 2.98268e-11 8.81717e-10 2.18315e-10 4.0276e-10 2.23236e-09 5.46427e-10 9.40276e-10 3.85677e-09 9.43611e-10 1.62445e-09 2.23236e-09 5.46416e-10 9.40263e-10 7.73091 5.47488 0.417314 2.23236e-09 5.46424e-10 9.40277e-10 2.90554 0.965183 0.102902 2.23236e-09 5.46425e-10 9.40279e-10 10.2786 0.731801 0.0259123 2.23236e-09 5.46429e-10 9.40293e-10 2.22167 -0.733487 -0.20892 1.57523e-13 -1.14798e-12 3.42011e-15 8.1875 4.83227e-09 -2.66946e-10 1.33538e-11 -6.77984e-10 -2.1345e-11 9.61556e-10 -3.90752e-09 -2.96453e-10 2.11761e-09 -9.94437e-09 -6.90916e-10 3.65803e-09 -1.71718e-08 -1.19374e-09 2.11761e-09 -9.94436e-09 -6.90918e-10 -7.73091 5.47488 -0.417314 2.11761e-09 -9.94438e-09 -6.90922e-10 -2.90554 0.965183 -0.102902 2.1176e-09 -9.94435e-09 -6.90918e-10 -10.2786 0.731801 -0.0259123 2.11761e-09 -9.94437e-09 -6.90926e-10 -2.22167 -0.733487 0.20892 -2.03217e-16 0.0 -3.88251e-19 4.9672 -12.9126 4.26517 -0.0641913 14.176 0.156932 -0.400788 4.45211 0.132752 2.03217e-16 0.0 3.88251e-19 8.45423 -12.8466 -5.62739 0.0240464 14.1506 -0.170948 0.382528 2.65315 -0.0950785
